<svg width="1512" height="900" viewBox="0 0 1512 900" fill="none" xmlns="http://www.w3.org/2000/svg">
<rect width="1512" height="900" fill="#1B1C1E"/>
<g opacity="0.03">
  <!-- Horizontal lines -->
  <line x1="0" y1="100" x2="1512" y2="100" stroke="white" stroke-width="1"/>
  <line x1="0" y1="200" x2="1512" y2="200" stroke="white" stroke-width="1"/>
  <line x1="0" y1="300" x2="1512" y2="300" stroke="white" stroke-width="1"/>
  <line x1="0" y1="400" x2="1512" y2="400" stroke="white" stroke-width="1"/>
  <line x1="0" y1="500" x2="1512" y2="500" stroke="white" stroke-width="1"/>
  <line x1="0" y1="600" x2="1512" y2="600" stroke="white" stroke-width="1"/>
  <line x1="0" y1="700" x2="1512" y2="700" stroke="white" stroke-width="1"/>
  <line x1="0" y1="800" x2="1512" y2="800" stroke="white" stroke-width="1"/>
  
  <!-- Vertical lines -->
  <line x1="100" y1="0" x2="100" y2="900" stroke="white" stroke-width="1"/>
  <line x1="200" y1="0" x2="200" y2="900" stroke="white" stroke-width="1"/>
  <line x1="300" y1="0" x2="300" y2="900" stroke="white" stroke-width="1"/>
  <line x1="400" y1="0" x2="400" y2="900" stroke="white" stroke-width="1"/>
  <line x1="500" y1="0" x2="500" y2="900" stroke="white" stroke-width="1"/>
  <line x1="600" y1="0" x2="600" y2="900" stroke="white" stroke-width="1"/>
  <line x1="700" y1="0" x2="700" y2="900" stroke="white" stroke-width="1"/>
  <line x1="800" y1="0" x2="800" y2="900" stroke="white" stroke-width="1"/>
  <line x1="900" y1="0" x2="900" y2="900" stroke="white" stroke-width="1"/>
  <line x1="1000" y1="0" x2="1000" y2="900" stroke="white" stroke-width="1"/>
  <line x1="1100" y1="0" x2="1100" y2="900" stroke="white" stroke-width="1"/>
  <line x1="1200" y1="0" x2="1200" y2="900" stroke="white" stroke-width="1"/>
  <line x1="1300" y1="0" x2="1300" y2="900" stroke="white" stroke-width="1"/>
  <line x1="1400" y1="0" x2="1400" y2="900" stroke="white" stroke-width="1"/>
</g>

<!-- Subtle accent dots -->
<g opacity="0.02">
  <circle cx="150" cy="150" r="2" fill="#3B82F6"/>
  <circle cx="450" cy="250" r="2" fill="#3B82F6"/>
  <circle cx="750" cy="350" r="2" fill="#3B82F6"/>
  <circle cx="1050" cy="450" r="2" fill="#3B82F6"/>
  <circle cx="1350" cy="550" r="2" fill="#3B82F6"/>
  <circle cx="250" cy="650" r="2" fill="#3B82F6"/>
  <circle cx="550" cy="750" r="2" fill="#3B82F6"/>
  <circle cx="850" cy="150" r="2" fill="#3B82F6"/>
  <circle cx="1150" cy="250" r="2" fill="#3B82F6"/>
  <circle cx="1450" cy="350" r="2" fill="#3B82F6"/>
</g>
</svg> 