<?xml version="1.0" encoding="UTF-8"?>
<svg xmlns="http://www.w3.org/2000/svg" height="300" version="1.1" viewBox="105 95 305 315" width="300">
<path d="M 314.02 108.49 C 318.69 108.40 323.36 110.11 326.91 113.12 C 330.56 116.45 333.85 120.15 337.17 123.81 C 346.52 132.81 355.31 142.37 364.80 151.23 C 372.05 158.64 380.04 165.38 386.49 173.54 C 387.74 175.10 388.52 176.96 389.35 178.77 C 389.76 181.81 389.96 184.88 389.91 187.95 C 389.83 208.22 390.02 228.49 389.77 248.76 C 367.87 248.87 345.97 248.77 324.07 248.84 C 346.33 272.10 369.51 294.45 392.15 317.35 C 369.22 317.48 346.28 317.34 323.35 317.42 C 323.75 339.91 323.55 362.41 323.43 384.89 C 322.64 384.26 321.96 383.48 321.18 382.85 C 301.83 362.84 281.92 343.36 262.29 323.63 C 261.61 323.01 260.93 322.39 260.26 321.77 C 258.94 320.67 257.63 319.57 256.31 318.49 C 255.97 341.44 255.90 364.38 255.83 387.33 C 236.54 387.47 217.24 387.39 197.95 387.38 C 193.38 387.42 188.93 385.45 185.90 382.03 C 167.23 363.07 148.02 344.63 129.48 325.54 C 126.88 322.91 124.97 319.69 123.78 316.20 C 122.58 309.87 122.96 303.40 122.89 296.99 C 122.94 260.97 122.83 224.95 122.94 188.94 C 123.05 185.28 122.97 181.53 124.07 178.00 C 126.13 172.28 131.08 168.44 135.22 164.26 C 142.05 157.77 148.68 151.08 155.32 144.39 C 165.00 134.41 175.22 124.97 184.84 114.93 C 188.62 110.61 194.34 108.24 200.07 108.49 C 238.06 108.55 276.04 108.51 314.02 108.49 Z M 201.18 182.20 C 202.79 180.62 204.46 178.50 206.99 178.71 C 239.33 178.57 271.67 178.66 304.01 178.62 C 306.53 178.46 309.26 178.91 311.01 180.89 C 314.75 184.77 318.59 188.55 322.32 192.44 C 323.61 193.57 323.39 195.41 323.46 196.95 C 323.42 214.18 323.44 231.41 323.48 248.64 C 302.98 248.74 282.47 248.67 261.97 248.68 C 257.89 248.88 255.49 253.22 255.84 256.97 C 256.45 277.15 255.88 297.34 255.99 317.53 C 238.92 317.62 221.84 317.74 204.77 317.51 C 199.81 312.97 195.12 308.15 190.61 303.19 C 189.58 299.21 189.94 295.09 189.90 291.04 C 189.92 260.04 189.93 229.04 189.82 198.04 C 189.85 196.10 189.93 193.87 191.42 192.43 C 194.63 188.98 197.99 185.67 201.18 182.20 Z" fill="#01030d" fill-rule="evenodd" stroke="none"/>
</svg> 